{
  "accessors": [
    {
      "bufferView": 2,
      "componentType": 5126,
      "count": 1177,
      "max": [
        0.07555756717920303,
        0.07555756717920303,
        0.11443822830915451
      ],
      "min": [
        -0.07555756717920303,
        -0.07555756717920303,
        -0.03492752090096474
      ],
      "type": "VEC3"
    },
    {
      "bufferView": 2,
      "byteOffset": 14124,
      "componentType": 5126,
      "count": 1177,
      "max": [
        1.0,
        1.0,
        1.0
      ],
      "min": [
        -1.0,
        -1.0,
        -1.0
      ],
      "type": "VEC3"
    },
    {
      "bufferView": 3,
      "componentType": 5126,
      "count": 1177,
      "max": [
        1.0,
        1.0,
        1.0,
        1.0
      ],
      "min": [
        -0.9997066259384155,
        -1.0,
        -0.9998131990432739,
        1.0
      ],
      "type": "VEC4"
    },
    {
      "bufferView": 1,
      "componentType": 5126,
      "count": 1177,
      "max": [
        0.990534782409668,
        0.9995896220207214
      ],
      "min": [
        0.007334090769290924,
        0.00474938889965415
      ],
      "type": "VEC2"
    },
    {
      "bufferView": 0,
      "componentType": 5125,
      "count": 5028,
      "type": "SCALAR"
    },
    {
      "bufferView": 2,
      "byteOffset": 28248,
      "componentType": 5126,
      "count": 1456,
      "max": [
        0.012463705614209175,
        0.007637056987732649,
        0.03220657631754875
      ],
      "min": [
        -0.017103027552366257,
        -0.07207991182804108,
        -0.008209645748138428
      ],
      "type": "VEC3"
    },
    {
      "bufferView": 2,
      "byteOffset": 45720,
      "componentType": 5126,
      "count": 1456,
      "max": [
        0.999191164970398,
        1.0,
        1.0
      ],
      "min": [
        -0.9967285394668579,
        -1.0,
        -1.0
      ],
      "type": "VEC3"
    },
    {
      "bufferView": 3,
      "byteOffset": 18832,
      "componentType": 5126,
      "count": 1456,
      "max": [
        1.0,
        0.997979998588562,
        1.0,
        1.0
      ],
      "min": [
        -1.0,
        -0.9969087839126587,
        -1.0,
        -1.0
      ],
      "type": "VEC4"
    },
    {
      "bufferView": 1,
      "byteOffset": 9416,
      "componentType": 5126,
      "count": 1456,
      "max": [
        0.7113627195358276,
        0.9951351881027222
      ],
      "min": [
        0.18306982517242432,
        0.005450010299682617
      ],
      "type": "VEC2"
    },
    {
      "bufferView": 0,
      "byteOffset": 20112,
      "componentType": 5125,
      "count": 4293,
      "type": "SCALAR"
    }
  ],
  "asset": {
    "extras": {
      "author": "Mateusz Woliński (https://sketchfab.com/jeandiz)",
      "license": "CC-BY-4.0 (http://creativecommons.org/licenses/by/4.0/)",
      "source": "https://sketchfab.com/3d-models/coffee-grinder-bcdd3c1ba9a04ec1b18b334fabe03190",
      "title": "Coffee Grinder"
    },
    "generator": "Sketchfab-12.66.0",
    "version": "2.0"
  },
  "bufferViews": [
    {
      "buffer": 0,
      "byteLength": 37284,
      "name": "floatBufferViews",
      "target": 34963
    },
    {
      "buffer": 0,
      "byteLength": 21064,
      "byteOffset": 37284,
      "byteStride": 8,
      "name": "floatBufferViews",
      "target": 34962
    },
    {
      "buffer": 0,
      "byteLength": 63192,
      "byteOffset": 58348,
      "byteStride": 12,
      "name": "floatBufferViews",
      "target": 34962
    },
    {
      "buffer": 0,
      "byteLength": 42128,
      "byteOffset": 121540,
      "byteStride": 16,
      "name": "floatBufferViews",
      "target": 34962
    }
  ],
  "buffers": [
    {
      "byteLength": 163668,
      "uri": "scene.bin"
    }
  ],
  "images": [
    {
      "uri": "Coffee_Grinder_baseColor.png"
    },
    {
      "uri": "Coffee_Grinder_metallicRoughness.png"
    },
    {
      "uri": "Coffee_Grinder_normal.png"
    }
  ],
  "materials": [
    {
      "doubleSided": true,
      "name": "Coffee_Grinder",
      "normalTexture": {
        "index": 2
      },
      "occlusionTexture": {
        "index": 1
      },
      "pbrMetallicRoughness": {
        "baseColorTexture": {
          "index": 0
        },
        "metallicRoughnessTexture": {
          "index": 1
        }
      }
    }
  ],
  "meshes": [
    {
      "name": "base_Coffee Grinder_0",
      "primitives": [
        {
          "attributes": {
            "NORMAL": 1,
            "POSITION": 0,
            "TANGENT": 2,
            "TEXCOORD_0": 3
          },
          "indices": 4,
          "material": 0,
          "mode": 4
        }
      ]
    },
    {
      "name": "handle_Coffee Grinder_0",
      "primitives": [
        {
          "attributes": {
            "NORMAL": 6,
            "POSITION": 5,
            "TANGENT": 7,
            "TEXCOORD_0": 8
          },
          "indices": 9,
          "material": 0,
          "mode": 4
        }
      ]
    }
  ],
  "nodes": [
    {
      "children": [
        1
      ],
      "matrix": [
        1.0,
        0.0,
        0.0,
        0.0,
        0.0,
        2.220446049250313e-16,
        -1.0,
        0.0,
        0.0,
        1.0,
        2.220446049250313e-16,
        0.0,
        0.0,
        0.0,
        0.0,
        1.0
      ],
      "name": "Sketchfab_model"
    },
    {
      "children": [
        2
      ],
      "matrix": [
        1.0,
        0.0,
        0.0,
        0.0,
        0.0,
        0.0,
        1.0,
        0.0,
        0.0,
        -1.0,
        0.0,
        0.0,
        0.0,
        0.0,
        0.0,
        1.0
      ],
      "name": "f6e9fd204dd6453eb81c2487703bbe3a.fbx"
    },
    {
      "children": [
        3
      ],
      "name": "RootNode"
    },
    {
      "children": [
        4,
        5
      ],
      "matrix": [
        100.0,
        0.0,
        0.0,
        0.0,
        0.0,
        -1.629206793918314e-05,
        -99.99999999999868,
        0.0,
        0.0,
        99.99999999999868,
        -1.629206793918314e-05,
        0.0,
        0.0,
        3.4905526638031006,
        0.0,
        1.0
      ],
      "name": "base"
    },
    {
      "mesh": 0,
      "name": "base_Coffee Grinder_0"
    },
    {
      "children": [
        6
      ],
      "matrix": [
        0.9849354593737593,
        0.1729223550273414,
        1.4249351482534544e-15,
        0.0,
        -0.1729223550273414,
        0.9849354593737593,
        -1.2413659594749882e-16,
        0.0,
        -1.4249351473391508e-15,
        -1.2413660644257668e-16,
        1.0,
        0.0,
        0.0,
        -1.6543612251060553e-24,
        0.09845380485057831,
        1.0
      ],
      "name": "handle"
    },
    {
      "mesh": 1,
      "name": "handle_Coffee Grinder_0"
    }
  ],
  "samplers": [
    {
      "magFilter": 9729,
      "minFilter": 9987,
      "wrapS": 10497,
      "wrapT": 10497
    }
  ],
  "scene": 0,
  "scenes": [
    {
      "name": "Sketchfab_Scene",
      "nodes": [
        0
      ]
    }
  ],
  "textures": [
    {
      "sampler": 0,
      "source": 0
    },
    {
      "sampler": 0,
      "source": 1
    },
    {
      "sampler": 0,
      "source": 2
    }
  ]
}
